<svg xmlns="http://www.w3.org/2000/svg" width="1136" height="304" viewBox="0 0 284 76" shape-rendering="crispEdges">
  <rect width="284" height="76" fill="#000"/>
  <rect x="0" y="0" width="284" height="14" fill="#FFA500"/>
  <text x="2" y="10" font-family="monospace" font-size="8" fill="#FFF">C-5/8</text>
  <text x="44" y="10" font-family="monospace" font-size="8" fill="#FFF">PROGRAM</text>
  <text x="198" y="10" font-family="monospace" font-size="8" fill="#FFF">PLAY Cfm</text>
  <text x="240" y="10" font-family="monospace" font-size="8" fill="#FFF">USB</text>

  <rect x="4" y="18" width="90" height="42" fill="#181C18" stroke="#FFA500"/>
  <text x="8" y="27" font-family="monospace" font-size="8" fill="#FFF">A:PGM NO</text>
  <text x="8" y="39" font-family="monospace" font-size="8" fill="#FFF">Bank 2 (37)</text>
  <rect x="8" y="50" width="82" height="6" fill="none" stroke="#FFA500"/>
  <rect x="9" y="51" width="24" height="4" fill="#FFA500"/>

  <rect x="98" y="18" width="90" height="42" fill="#FF0000" stroke="#FFF"/>
  <text x="102" y="27" font-family="monospace" font-size="8" fill="#000">B:WR PGM 3</text>
  <text x="102" y="39" font-family="monospace" font-size="8" fill="#000">1 (1)</text>
  <text x="102" y="53" font-family="monospace" font-size="8" fill="#000">[YES] no</text>

  <rect x="192" y="18" width="90" height="42" fill="#310000" stroke="#FF0000"/>
  <text x="196" y="27" font-family="monospace" font-size="8" fill="#FFF">C:RD PGM 3</text>
  <text x="196" y="39" font-family="monospace" font-size="8" fill="#FFF">0 (0)</text>

  <rect x="0" y="60" width="284" height="4" fill="#FF0000"/>
  <rect x="0" y="64" width="284" height="12" fill="#000"/>
  <text x="2" y="73" font-family="monospace" font-size="8" fill="#FFF">Turn:No/Yes  Click:Exec  Hold:Back</text>
</svg>
